<?xml version="1.0" encoding="UTF-8"?>
<svg width="200px" height="40px" viewBox="0 0 200 40" version="1.1" xmlns="http://www.w3.org/2000/svg" xmlns:xlink="http://www.w3.org/1999/xlink">
    <!-- Generator: Sketch 50.2 (55047) - http://www.bohemiancoding.com/sketch -->
    <title>Logo</title>
    <desc>Created with Sketch.</desc>
    <defs></defs>
    <g id="Brand" stroke="none" stroke-width="1" fill="none" fill-rule="evenodd">
        <g id="Logo">
            <path d="M2.01268966,31.1724138 L1.34559031e-13,31.1724138 L1.34559031e-13,8.46675862 L3.42786207,8.46675862 L10.1263448,28.9710345 L10.1892414,28.9710345 L16.7933793,8.46675862 L20.0011034,8.46675862 L20.0011034,31.1724138 L17.9884138,31.1724138 L17.9884138,10.4165517 L17.9255172,10.4165517 L11.2584828,31.1724138 L8.93131034,31.1724138 L2.07558621,10.4165517 L2.01268966,10.4165517 L2.01268966,31.1724138 Z M29.2154483,31.4868966 C25.5045517,31.4868966 23.7434483,29.0653793 23.7434483,24.9456552 L23.7434483,21.5177931 C23.7434483,17.398069 25.5045517,14.9765517 29.2154483,14.9765517 C32.9263448,14.9765517 34.6874483,17.398069 34.6874483,21.5177931 L34.6874483,24.9456552 C34.6874483,29.0653793 32.9263448,31.4868966 29.2154483,31.4868966 Z M29.2154483,16.486069 C26.102069,16.486069 25.6303448,19.0962759 25.6303448,23.216 C25.6303448,27.3671724 26.102069,29.9773793 29.2154483,29.9773793 C32.3288276,29.9773793 32.8005517,27.3671724 32.8005517,23.216 C32.8005517,19.0962759 32.3288276,16.486069 29.2154483,16.486069 Z M42.864,29.9773793 C44.6565517,29.9773793 46.3547586,28.5307586 46.3547586,24.6626207 L46.3547586,21.8322759 C46.3547586,20.8888276 46.3547586,16.486069 42.8011034,16.486069 C39.4046897,16.486069 39.4046897,19.568 39.4046897,23.2788966 C39.4046897,29.1911724 40.8198621,29.9773793 42.864,29.9773793 Z M46.5434483,31.1724138 L46.4491034,29.1597241 L46.3862069,29.1911724 C45.4113103,30.7006897 44.2162759,31.4868966 42.3608276,31.4868966 C37.7693793,31.4868966 37.5177931,26.9268966 37.5177931,23.216 C37.5177931,20.1655172 37.5177931,14.9765517 42.3922759,14.9765517 C43.8388966,14.9765517 45.254069,15.6369655 46.2289655,16.8634483 L46.2918621,16.8948966 L46.2918621,8.46675862 L48.1787586,8.46675862 L48.1787586,28.0275862 C48.1787586,29.6 48.2731034,30.6377931 48.3674483,31.1724138 L46.5434483,31.1724138 Z M62.6135172,23.6248276 L53.5564138,23.6248276 L53.5564138,24.8513103 C53.5564138,27.0526897 54.153931,29.9773793 57.1415172,29.9773793 C59.5001379,29.9773793 60.6637241,28.4678621 60.6322759,26.3293793 L62.6135172,26.3293793 C62.3933793,30.166069 60.3177931,31.4868966 57.1415172,31.4868966 C54.4055172,31.4868966 51.6695172,30.3862069 51.6695172,25.5746207 L51.6695172,21.6750345 C51.6695172,17.0835862 53.5878621,14.9765517 57.1415172,14.9765517 C62.6135172,14.9765517 62.6135172,18.9075862 62.6135172,23.6248276 Z M53.5564138,22.1153103 L60.7266207,22.1153103 C60.7266207,18.5931034 60.1605517,16.486069 57.1415172,16.486069 C54.1224828,16.486069 53.5564138,18.5931034 53.5564138,22.1153103 Z M68.5572414,31.1724138 L66.6703448,31.1724138 L66.6703448,8.46675862 L68.5572414,8.46675862 L68.5572414,31.1724138 Z" id="Model" fill="#2C67A6"></path>
            <polygon id="N" fill="#4AA3D8" points="83.4124138 31.1724138 78.9782069 31.1724138 78.9782069 8.46675862 85.3936552 8.46675862 91.4317241 24.1908966 91.4946207 24.1908966 91.4946207 8.46675862 95.9288276 8.46675862 95.9288276 31.1724138 89.6706207 31.1724138 83.4753103 14.5677241 83.4124138 14.5677241"></polygon>
        </g>
    </g>
</svg>